<?xml version="1.0" standalone="no"?>
<!DOCTYPE svg PUBLIC "-//W3C//DTD SVG 20010904//EN"
 "http://www.w3.org/TR/2001/REC-SVG-20010904/DTD/svg10.dtd">
<svg version="1.0" xmlns="http://www.w3.org/2000/svg"
 width="100.000000pt" height="100.000000pt" viewBox="0 0 100.000000 100.000000"
 preserveAspectRatio="xMidYMid meet">
<metadata>
Created by potrace 1.14, written by Peter Selinger 2001-2017
</metadata>
<g transform="translate(0.000000,100.000000) scale(0.100000,-0.100000)"
fill="#000000" stroke="none">
<path d="M330 803 c-91 -52 -168 -100 -171 -105 -3 -5 -5 -97 -5 -204 l1 -196
173 -99 173 -100 172 99 172 100 0 202 0 202 -170 99 c-93 54 -172 99 -175 98
-3 0 -79 -43 -170 -96z m249 -10 c36 -21 78 -44 92 -53 14 -8 48 -27 75 -43
l49 -28 0 -168 0 -169 -145 -84 -145 -84 -147 84 -148 84 0 168 0 167 138 81
c75 44 143 80 151 81 8 0 44 -16 80 -36z"/>
<path d="M525 699 c-94 -55 -95 -56 -95 -26 0 24 -24 44 -34 28 -3 -4 -5 -96
-5 -203 0 -156 3 -197 13 -201 19 -7 26 1 26 30 0 13 2 23 5 23 3 0 42 -21 86
-46 44 -26 83 -44 86 -41 14 15 -12 38 -91 83 l-86 49 0 105 0 106 87 49 c50
28 89 58 91 68 5 24 -4 22 -83 -24z"/>
</g>
</svg>
