<?xml version="1.0" encoding="UTF-8" standalone="no"?><!DOCTYPE svg PUBLIC "-//W3C//DTD SVG 1.1//EN" "http://www.w3.org/Graphics/SVG/1.1/DTD/svg11.dtd"><svg width="50" height="50" viewBox="0 0 100 100" version="1.1" xmlns="http://www.w3.org/2000/svg" xmlns:xlink="http://www.w3.org/1999/xlink" xml:space="preserve" xmlns:serif="http://www.serif.com/" style="fill-rule:evenodd;clip-rule:evenodd;stroke-linejoin:round;stroke-miterlimit:2;"><rect id="Artboard1" x="-2200" y="-2200" width="4500" height="4500" style="fill:none;"/><g id="Background"><circle cx="50" cy="50" r="50" style="fill:url(#_Radial1);"/></g><g><g id="S"><g><path d="M35.011,48.591l-0,-18.652l17.781,-10.292l-0.003,5.715l-12.625,8.324l-0,14.905l29.875,-0.006l0.016,5.167l-0.013,14.115l-0.003,2.51l-17.233,9.965l-0.06,-5.724l12.141,-7.891l-0.06,-12.975l-24.663,-0.007l-5.153,0"/><path d="M70.039,29.602l-17.247,-9.955l-0.003,5.715l13.922,7.988"/><path d="M35.011,70.049l17.796,10.271l-0.061,-5.702l-14.407,-8.314"/></g></g><g id="G"><path d="M75.638,49.247l7.209,-0l0,18.205l-30.041,17.26l-0,-4.392l26.439,-15.253l-0.001,-12.217l-3.606,0l-0,-3.603Z" style="fill:#fff;"/><path d="M52.792,19.647l-26.221,15.177l0,30.352l26.227,15.142l0,4.327l-30.048,-17.301l-0,-34.688l30.041,-17.345l0.001,4.336Zm0.006,60.671l0.06,0.035l-0.06,-0.035Z" style="fill:#fff;"/><path d="M52.792,19.647l26.369,15.22l3.821,-2.168l-30.19,-17.388l-0,4.336Z" style="fill:#fff;"/></g><g id="K"><path id="K1" serif:id="K" d="M52.798,84.645l0,6.434l-35.575,-20.54l0,-41.078l35.575,-20.54l-0.007,6.39l-30.041,17.345l-0,34.688l30.048,17.301Z"/><path id="K2" serif:id="K" d="M52.798,84.645l0,6.434l-35.575,-20.54l0,-41.078l35.575,-20.54l-0.007,6.39l-30.041,17.345l-0,34.688l30.048,17.301Z"/><rect x="17.018" y="15.768" width="5.705" height="68.465"/></g></g><defs><radialGradient id="_Radial1" cx="0" cy="0" r="1" gradientUnits="userSpaceOnUse" gradientTransform="matrix(50,0.00513587,-0.00513587,50,50,50)"><stop offset="0" style="stop-color:#bb001f;stop-opacity:1"/><stop offset="0.75" style="stop-color:#dd2628;stop-opacity:1"/><stop offset="0.89" style="stop-color:#e4292a;stop-opacity:1"/><stop offset="1" style="stop-color:#ff3530;stop-opacity:1"/></radialGradient></defs></svg>